<!DOCTYPE svg PUBLIC "-//W3C//DTD SVG 1.1//EN" "http://www.w3.org/Graphics/SVG/1.1/DTD/svg11.dtd">
<!-- Uploaded to: SVG Repo, www.svgrepo.com, Transformed by: SVG Repo Mixer Tools -->
<svg fill="#00FF9C" height="800px" width="800px" version="1.1" id="Layer_1" xmlns="http://www.w3.org/2000/svg" xmlns:xlink="http://www.w3.org/1999/xlink" viewBox="0 0 511.999 511.999" xml:space="preserve">
<g id="SVGRepo_bgCarrier" stroke-width="0"/>
<g id="SVGRepo_tracerCarrier" stroke-linecap="round" stroke-linejoin="round"/>
<g id="SVGRepo_iconCarrier"> <g> <g> <path d="M467.039,306.602c-3.059,0-6.075,0.305-9.017,0.905v-51.507v-68.029c0-4.331-2.565-8.249-6.535-9.982 c-3.967-1.732-8.586-0.949-11.763,1.996c-4.531,4.202-10.425,6.515-16.599,6.515c-13.464,0-24.419-10.959-24.419-24.43 s10.955-24.43,24.419-24.43c6.173,0,12.068,2.314,16.599,6.515c3.177,2.946,7.796,3.728,11.763,1.996 c3.97-1.733,6.535-5.652,6.535-9.982V64.875c0-6.015-4.877-10.891-10.892-10.891h-42.023c0.435-2.556,0.657-5.157,0.657-7.777 c0-25.476-20.731-46.202-46.213-46.202c-25.476,0-46.202,20.726-46.202,46.202c0,2.619,0.221,5.22,0.657,7.777h-58.002H204.49 c0.598-2.942,0.902-5.958,0.902-9.018c0-24.791-20.17-44.96-44.96-44.96c-24.785,0-44.949,20.169-44.949,44.96 c0,3.06,0.304,6.077,0.902,9.018H64.869c-6.014,0-10.891,4.876-10.891,10.891v70.065c0,4.362,2.603,8.304,6.613,10.016 c4.01,1.712,8.657,0.869,11.809-2.148c4.582-4.385,10.584-6.801,16.9-6.801c13.464,0,24.419,10.959,24.419,24.43 s-10.955,24.43-24.419,24.43c-6.316,0-12.318-2.416-16.9-6.801c-3.152-3.016-7.799-3.861-11.809-2.148 c-4.011,1.713-6.613,5.654-6.613,10.016v70.065v51.507c-2.942-0.599-5.959-0.905-9.017-0.905C20.169,306.602,0,326.77,0,351.562 s20.17,44.96,44.96,44.96c3.06,0,6.076-0.304,9.017-0.902v51.515c0,6.015,4.877,10.892,10.891,10.892h51.516 c-0.598,2.941-0.902,5.958-0.902,9.018c0,24.785,20.165,44.949,44.949,44.949c24.791,0,44.96-20.165,44.96-44.949 c0-3.059-0.304-6.077-0.902-9.018h51.515h51.504c-0.598,2.941-0.902,5.959-0.902,9.018c0,24.785,20.17,44.949,44.96,44.949 c24.79,0,44.96-20.165,44.96-44.949c0-3.059-0.305-6.076-0.904-9.018h51.506c6.014,0,10.892-4.876,10.892-10.892V395.62 c2.941,0.598,5.958,0.902,9.017,0.902c24.791,0,44.96-20.169,44.96-44.96S491.829,306.602,467.039,306.602z M266.898,75.766 h62.679c3.958,0,7.603-2.147,9.524-5.607c1.92-3.46,1.812-7.69-0.282-11.048c-2.412-3.868-3.687-8.33-3.687-12.905 c0-13.464,10.955-24.419,24.419-24.419c13.471,0,24.43,10.955,24.43,24.419c0,4.576-1.274,9.038-3.687,12.905 c-2.094,3.358-2.201,7.587-0.282,11.048c1.919,3.461,5.566,5.607,9.524,5.607h46.703v41.984 c-4.216-1.247-8.625-1.892-13.113-1.892c-25.476,0-46.202,20.731-46.202,46.213s20.726,46.213,46.202,46.213 c4.488,0,8.897-0.646,13.113-1.892v38.716h-57.039c-4.09,0-7.834,2.292-9.697,5.932c-1.862,3.64-1.527,8.018,0.866,11.334 c2.863,3.968,4.377,8.648,4.377,13.535c0,12.78-10.397,23.177-23.177,23.177c-12.78,0-23.177-10.397-23.177-23.177 c0-4.897,1.511-9.577,4.366-13.535c2.393-3.315,2.728-7.693,0.866-11.334c-1.862-3.641-5.607-5.932-9.697-5.932h-57.028v-40.613 c2.941,0.598,5.958,0.903,9.018,0.903c24.791,0,44.96-20.169,44.96-44.96c0-24.791-20.17-44.96-44.96-44.96 c-3.062,0-6.077,0.304-9.018,0.903V75.766z M75.76,204.633c4.339,1.329,8.894,2.017,13.539,2.017 c25.476,0,46.202-20.731,46.202-46.213c0-25.482-20.725-46.213-46.202-46.213c-4.645,0-9.199,0.688-13.539,2.017V75.766h57.039 c4.09,0,7.834-2.292,9.697-5.932c1.862-3.64,1.527-8.018-0.866-11.334c-2.856-3.957-4.365-8.637-4.365-13.535 c0-12.78,10.392-23.177,23.166-23.177c12.78,0,23.177,10.397,23.177,23.177c0,4.897-1.511,9.577-4.366,13.535 c-2.393,3.315-2.727,7.693-0.866,11.334c1.862,3.641,5.607,5.932,9.697,5.932h57.039v57.039c0,4.092,2.294,7.839,5.938,9.7 c3.644,1.86,8.025,1.522,11.339-0.878c3.948-2.858,8.625-4.369,13.524-4.369c12.78,0,23.177,10.397,23.177,23.177 c0,12.78-10.397,23.177-23.177,23.177c-4.899,0-9.576-1.511-13.524-4.369c-3.313-2.399-7.695-2.738-11.339-0.877 c-3.644,1.86-5.938,5.607-5.938,9.7v57.039h-57.039c-4.09,0-7.834,2.292-9.697,5.932c-1.861,3.641-1.527,8.018,0.866,11.334 c2.856,3.958,4.366,8.638,4.366,13.535c0,12.78-10.397,23.177-23.177,23.177c-12.775,0-23.166-10.397-23.166-23.177 c0-4.898,1.51-9.578,4.365-13.535c2.393-3.315,2.728-7.693,0.866-11.334c-1.862-3.641-5.607-5.932-9.697-5.932H75.76V204.633z M251.045,369.508c-3.641,1.861-5.932,5.607-5.932,9.697v57.039h-57.04v0c-4.09,0-7.834,2.292-9.697,5.932 c-1.862,3.64-1.527,8.018,0.866,11.335c2.857,3.957,4.366,8.637,4.366,13.535c0,12.775-10.397,23.166-23.177,23.166 c-12.775,0-23.166-10.393-23.166-23.166c0-4.899,1.51-9.579,4.365-13.535c2.393-3.316,2.728-7.694,0.866-11.335 c-1.862-3.641-5.607-5.932-9.697-5.932H75.76v-57.039c0-4.09-2.292-7.834-5.932-9.697c-3.643-1.864-8.019-1.528-11.334,0.865 c-3.957,2.856-8.637,4.365-13.535,4.365c-12.78,0-23.177-10.397-23.177-23.177c0-12.78,10.397-23.177,23.177-23.177 c4.887,0,9.567,1.514,13.535,4.377c3.315,2.393,7.692,2.728,11.334,0.865c3.641-1.861,5.932-5.607,5.932-9.697V266.89h40.624 c-0.598,2.941-0.902,5.958-0.902,9.018c0,24.791,20.165,44.96,44.949,44.96c24.791,0,44.96-20.169,44.96-44.96 c0-3.06-0.304-6.076-0.902-9.018h40.623v57.039c0,4.09,2.292,7.834,5.932,9.697c3.641,1.862,8.017,1.527,11.334-0.865 c3.968-2.863,8.647-4.377,13.536-4.377c12.78,0,23.177,10.397,23.177,23.177s-10.397,23.177-23.177,23.177 c-4.898,0-9.579-1.51-13.536-4.365C259.063,367.98,254.686,367.644,251.045,369.508z M467.039,374.739 c-4.898,0-9.578-1.51-13.535-4.365c-3.315-2.393-7.693-2.728-11.334-0.865c-3.641,1.861-5.932,5.607-5.932,9.697v57.039H379.2 c-4.09,0-7.834,2.292-9.697,5.932c-1.862,3.64-1.527,8.018,0.866,11.335c2.863,3.967,4.377,8.647,4.377,13.535 c0,12.775-10.397,23.166-23.177,23.166s-23.177-10.393-23.177-23.166c0-4.898,1.51-9.578,4.366-13.535 c2.393-3.316,2.728-7.694,0.866-11.335c-1.862-3.641-5.607-5.932-9.697-5.932h-57.028v-40.623 c2.941,0.598,5.959,0.902,9.018,0.902c24.791,0,44.96-20.169,44.96-44.96c0-24.791-20.17-44.96-44.96-44.96 c-3.059,0-6.076,0.305-9.018,0.905v-40.616h40.612c-0.598,2.942-0.902,5.958-0.902,9.018c0,24.791,20.17,44.96,44.96,44.96 s44.96-20.169,44.96-44.96c0-3.059-0.305-6.076-0.904-9.018h40.615v57.039c0,4.09,2.292,7.834,5.932,9.697 c3.642,1.862,8.018,1.529,11.334-0.865c3.968-2.863,8.647-4.377,13.535-4.377c12.78,0,23.177,10.397,23.177,23.177 S479.819,374.739,467.039,374.739z"/> </g> </g> <g> <g> <path d="M412.853,365.895c-6.014,0-10.891,4.876-10.891,10.892v32.315c0,6.015,4.877,10.892,10.891,10.892 c6.014,0,10.892-4.876,10.892-10.892v-32.315C423.745,370.771,418.868,365.895,412.853,365.895z"/> </g> </g> <g> <g> <path d="M412.853,320.151c-6.014,0-10.891,4.876-10.891,10.892v4.629c0,6.015,4.877,10.892,10.891,10.892 c6.014,0,10.892-4.876,10.892-10.892v-4.629C423.745,325.027,418.868,320.151,412.853,320.151z"/> </g> </g> </g>
</svg>